<svg 
	version="1.1" 
	id="Capa_1" 
	xmlns="http://www.w3.org/2000/svg" xmlns:xlink="http://www.w3.org/1999/xlink" x="0px" y="0px"
	width="24px" height="24px" viewBox="0 0 24 24" style="enable-background:new 0 0 24 24;" 
	xml:space="preserve"
>
	<g>
		<g>
			<path d="M20,0H4C1.794,0,0,1.794,0,4v16c0,2.206,1.794,4,4,4h16c2.206,0,4-1.794,4-4V4C24,1.794,22.206,0,20,0z M22,20
				c0,1.104-0.896,2-2,2H4c-1.103,0-2-0.896-2-2V4c0-1.103,0.897-2,2-2h16c1.104,0,2,0.897,2,2V20z"/>
			<polygon points="5.926,9.968 10.376,11.875 10.376,11.899 5.926,13.807 5.926,15.077 11.683,12.438 11.683,11.335 5.926,8.697 		
				"/>
			<rect x="12.383" y="15.977" width="5.997" height="0.601"/>
		</g>
	</g>
</svg>
